<?xml version="1.0" encoding="utf-8"?>
<!-- Generator: Adobe Illustrator 19.0.0, SVG Export Plug-In . SVG Version: 6.00 Build 0)  -->
<svg version="1.1" id="Layer_1" xmlns="http://www.w3.org/2000/svg" xmlns:xlink="http://www.w3.org/1999/xlink" x="0px" y="0px"
	 viewBox="3 41 110 43" style="enable-background:new 3 41 110 43;" xml:space="preserve">
<title>logo</title>
<desc>Created with Sketch.</desc>
<g id="Nav">
	<g id="Artboard-Copy-2" transform="translate(-655.000000, -25.000000)">
		<g id="logo" transform="translate(655.000000, 25.000000)">
			<path id="Fill-1" d="M44.4,45.7v6.8C44,52.2,43.1,51,41,49.6c-5-3.3-9.4-3.7-13.3-3.7c-6.2,0-10,1.9-12.9,4.2
				c-1.1,0.8-2.6,2.4-3.8,4.6c-1.1,2.1-2,4.8-2,8c0,4.4,1.9,8.4,3.8,10.4c2,2.3,4.5,3.9,7.4,4.9c2,0.7,4.4,1.2,7.5,1.2
				c2,0,4-0.1,7.4-1c2.6-0.7,4.7-2,5.5-2.6c2.1-1.4,2.6-1.9,3.8-3.2v6.8c-1,0.6-4.2,2.5-7.7,3.6c-1.5,0.5-4.7,1.2-9,1.2
				c-6.4,0-12.3-1.9-17.2-5.9C6,74.3,3,69,3,62.6c0-3.6,1-7.4,3.3-10.8c1.5-2.3,3.5-4.4,6.1-6.2c4.8-3.4,10.4-4.6,15.3-4.6
				C35.2,41,40.3,43.2,44.4,45.7"/>
			<path id="Fill-3" d="M102.3,73c-2,2.3-4.6,3.9-7.5,4.9c-2,0.7-4.5,1.2-7.6,1.2l0,0c-3.1,0-5.6-0.5-7.6-1.2
				c-2.9-1-5.4-2.6-7.5-4.9c-2-2-3.9-6.1-3.9-10.4c0-3.2,1-5.9,2.1-8c1.2-2.2,2.8-3.7,3.9-4.6c2.9-2.3,6.7-4.2,13-4.2l0,0l0,0
				c6.3,0,10.1,1.9,13,4.2c1.1,0.8,2.6,2.4,3.9,4.6c1.1,2.1,2.1,4.8,2.1,8C106.2,67,104.3,71.1,102.3,73z M108.8,51.8
				c-1.5-2.3-3.5-4.4-6.1-6.2C97.8,42.2,92.1,41,87.2,41s-10.6,1.2-15.5,4.6c-2.6,1.8-4.6,4-6.1,6.2c-2.3,3.4-3.3,7.2-3.3,10.8
				c0,6.4,3.1,11.7,7.6,15.5c4.9,4,10.9,5.9,17.3,5.9l0,0c6.5,0,12.4-1.9,17.3-5.9c4.5-3.8,7.6-9.1,7.6-15.5
				C112.1,59,111.1,55.3,108.8,51.8L108.8,51.8z"/>
		</g>
	</g>
</g>
</svg>
